<svg width="500" height="500" viewBox="0 0 500 500" fill="none" xmlns="http://www.w3.org/2000/svg">
<path d="M85.4555 418.008C174.213 463.387 318.117 463.388 406.873 418.009C495.631 372.629 495.631 299.055 406.873 253.676C318.116 208.296 174.211 208.296 85.4535 253.675C-3.30253 299.054 -3.30254 372.629 85.4555 418.008Z" fill="#F5F5F5"/>
<path d="M375.732 345.513C380.596 348.321 390.156 347.355 397.084 343.355L437.02 320.161C443.948 316.161 445.613 310.637 440.739 307.823C435.864 305.009 426.298 305.973 419.371 309.976L379.466 333.18C372.54 337.183 370.868 342.704 375.732 345.513Z" fill="#EBEBEB"/>
<path d="M135.311 366.901L94.6914 343.448L135.311 319.996V366.901Z" fill="#EBEBEB"/>
<path d="M250.118 380.933L184.648 343.109L250.134 305.359L250.118 380.933Z" fill="#EBEBEB"/>
<path d="M80.3606 312.063C80.4746 302.562 73.8396 282.799 64.1286 270.344C54.4176 257.889 39.0246 248.682 27.9686 252.317C17.6706 255.702 18.6196 269.17 30.9556 278.235C43.2916 287.3 61.8606 298.725 67.1466 314.202L78.4006 333.249L80.3606 312.063Z" fill="#20AD95"/>
<path opacity="0.1" d="M80.3606 312.063C80.4746 302.562 73.8396 282.799 64.1286 270.344C54.4176 257.889 39.0246 248.682 27.9686 252.317C17.6706 255.702 18.6196 269.17 30.9556 278.235C43.2916 287.3 61.8606 298.725 67.1466 314.202L78.4006 333.249L80.3606 312.063Z" fill="black"/>
<path d="M80.9065 325.073C80.6045 325.045 80.3455 324.819 80.2875 324.507C74.3155 291.998 48.3955 265.32 32.7615 259.306C32.4045 259.168 32.2255 258.766 32.3625 258.409C32.4985 258.053 32.8925 257.866 33.2595 258.01C49.1905 264.137 75.5905 291.253 81.6525 324.256C81.7225 324.633 81.4725 324.994 81.0955 325.063C81.0325 325.076 80.9685 325.079 80.9065 325.073Z" fill="white"/>
<path d="M75.8194 345.774C74.3574 340.415 67.9394 331.523 57.4764 324.116C45.9014 315.922 31.1754 312.041 27.8454 305.732C23.8454 298.153 30.2784 291.114 42.2494 292.745C54.2204 294.376 75.1044 310.988 78.1774 335.657L75.8194 345.774Z" fill="#20AD95"/>
<path d="M78.2063 340.2C77.9433 340.176 77.7063 340.001 77.6133 339.734C68.0013 311.829 46.9193 301.822 37.1163 300.429C36.7373 300.376 36.4733 300.023 36.5263 299.644C36.5803 299.263 36.9163 298.999 37.3113 299.054C48.1523 300.594 69.1153 310.799 78.9263 339.282C79.0513 339.644 78.8573 340.04 78.4953 340.165C78.4003 340.198 78.3013 340.208 78.2063 340.2Z" fill="white"/>
<path d="M434.924 285.022C434.924 285.022 436.257 264.99 448.062 250.121C459.867 235.251 459.141 229.128 451.002 226.126C442.863 223.124 423.956 241.045 428.163 265.043C432.37 289.041 434.924 285.022 434.924 285.022Z" fill="#20AD95"/>
<path opacity="0.1" d="M434.924 285.022C434.924 285.022 436.257 264.99 448.062 250.121C459.867 235.251 459.141 229.128 451.002 226.126C442.863 223.124 423.956 241.045 428.163 265.043C432.37 289.041 434.924 285.022 434.924 285.022Z" fill="black"/>
<path d="M431.318 273.579C431.074 273.579 430.869 273.389 430.854 273.143C429.475 251.084 445.054 232.985 450.885 228.889C451.093 228.742 451.385 228.792 451.533 229.002C451.681 229.212 451.63 229.502 451.42 229.65C445.703 233.666 430.429 251.422 431.783 273.085C431.799 273.341 431.604 273.562 431.348 273.578C431.337 273.579 431.327 273.579 431.318 273.579Z" fill="white"/>
<path d="M431.716 301.563C431.716 301.563 438.83 304.028 447.971 305.476C457.112 306.923 461.146 302.552 461.146 302.552C461.146 302.552 457.546 293.978 452.355 291.573C452.355 291.573 461.156 293.367 468.22 298.08C468.22 298.08 473.802 298.165 476.024 289.645C476.024 289.645 472.717 284.518 461.621 281.748C461.621 281.748 468.372 280.049 478.1 282.53C478.829 282.82 481.939 271.805 482.88 266.723C483.82 261.641 481.778 261.695 477.817 260.637C473.855 259.579 460.734 256.632 458.254 258.811C455.774 260.99 454.514 268.44 454.514 268.44C454.514 268.44 452.88 264.044 454.142 258.997C454.142 258.997 450.577 257.604 445.044 259.213C440.518 260.53 440.298 263.609 440.503 267.09C440.653 269.634 441.266 272.344 442.462 275.925C442.462 275.925 438.934 271.404 438.825 261.6C438.825 261.6 429.564 266.201 427.983 275.393C427.127 280.363 425.915 294.96 431.716 301.563Z" fill="#20AD95"/>
<path d="M433.462 299.775C433.653 299.775 433.837 299.668 433.925 299.484C441.302 284.159 468.727 266.351 478.551 264.44C478.829 264.386 479.012 264.116 478.958 263.837C478.904 263.558 478.631 263.379 478.355 263.431C468.369 265.374 440.493 283.469 433 299.039C432.877 299.295 432.984 299.602 433.24 299.725C433.312 299.759 433.387 299.775 433.462 299.775Z" fill="white"/>
<path d="M76.7807 352.869C75.6467 352.869 74.9688 351.932 74.9688 350.363V182.154L280.964 63.2227L280.965 230.755C280.965 233.325 279.153 236.463 276.927 237.749L78.4217 352.356C77.8407 352.691 77.2727 352.869 76.7807 352.869Z" fill="#FAFAFA"/>
<path d="M280.379 64.234L280.38 230.753C280.38 233.097 278.665 236.068 276.635 237.24L78.1298 351.847C77.6368 352.131 77.1708 352.282 76.7808 352.282C75.6738 352.282 75.5538 350.938 75.5538 350.361V182.489L280.379 64.234ZM281.548 62.207L74.3848 181.814V350.36C74.3848 352.319 75.3608 353.451 76.7808 353.451C77.3628 353.451 78.0198 353.261 78.7148 352.86L277.219 238.253C279.61 236.872 281.549 233.514 281.549 230.753L281.548 62.207Z" fill="#E0E0E0"/>
<path d="M74.3848 181.814V209.958L281.547 90.353L281.548 62.207L74.3848 181.814Z" fill="#20AD95"/>
<path d="M90.6309 183.316L90.6319 187.352C90.6319 188.177 91.2169 188.514 91.9309 188.102L155.624 151.329L155.623 144.293L91.9299 181.066C91.2149 181.478 90.6309 182.491 90.6309 183.316Z" fill="#FAFAFA"/>
<path d="M162.449 140.349C163.166 139.935 163.748 140.271 163.748 141.099V145.135C163.748 145.963 163.166 146.971 162.449 147.385L155.624 151.326L155.623 144.29L162.449 140.349Z" fill="#455A64"/>
<path d="M74.3848 172.741C74.3848 169.979 76.3238 166.622 78.7148 165.241L277.218 50.6344C279.61 49.2534 281.548 50.3734 281.548 53.1344V62.2054L74.3848 181.812V172.741Z" fill="#455A64"/>
<path d="M258.525 66.137C257.403 66.785 256.494 68.36 256.494 69.655C256.494 70.95 257.403 71.476 258.525 70.828C259.647 70.18 260.556 68.605 260.556 67.31C260.556 66.014 259.646 65.489 258.525 66.137Z" fill="#20AD95"/>
<path d="M264.959 62.4143C263.837 63.0623 262.928 64.6373 262.928 65.9323C262.928 67.2273 263.837 67.7533 264.959 67.1053C266.081 66.4573 266.99 64.8823 266.99 63.5873C266.99 62.2913 266.081 61.7663 264.959 62.4143Z" fill="#20AD95"/>
<path d="M271.392 58.6956C270.27 59.3436 269.361 60.9186 269.361 62.2136C269.361 63.5096 270.27 64.0346 271.392 63.3866C272.514 62.7386 273.423 61.1636 273.423 59.8686C273.423 58.5726 272.514 58.0476 271.392 58.6956Z" fill="#20AD95"/>
<g opacity="0.1">
<path d="M216.555 108.677C214.103 110.093 212.115 113.536 212.115 116.368C212.115 119.2 214.103 120.348 216.555 118.932C219.007 117.516 220.995 114.073 220.995 111.241C220.995 108.409 219.007 107.261 216.555 108.677Z" fill="black"/>
<path d="M196.245 120.399C193.793 121.815 191.805 125.258 191.805 128.09C191.805 130.922 193.793 132.07 196.245 130.654C198.697 129.238 200.685 125.795 200.685 122.963C200.685 120.131 198.697 118.983 196.245 120.399Z" fill="black"/>
<path d="M236.864 96.9496C234.412 98.3656 232.424 101.809 232.424 104.641C232.424 107.473 234.412 108.621 236.864 107.205C239.316 105.789 241.304 102.346 241.304 99.5136C241.304 96.6826 239.316 95.5346 236.864 96.9496Z" fill="black"/>
<path d="M257.176 85.2002C254.724 86.6162 252.736 90.0592 252.736 92.8912C252.736 95.7232 254.724 96.8712 257.176 95.4552C259.628 94.0392 261.616 90.5962 261.616 87.7642C261.615 84.9322 259.628 83.7842 257.176 85.2002Z" fill="black"/>
</g>
<path d="M94.9609 212.147L143.169 184.314C145.56 182.933 147.499 184.053 147.499 186.814V233.099C147.499 235.86 145.56 239.218 143.169 240.599L94.9619 268.433C92.5709 269.814 90.6319 268.694 90.6319 265.933L90.6309 219.647C90.6309 216.886 92.5699 213.528 94.9609 212.147Z" fill="#E0E0E0"/>
<path d="M164.021 172.277L265.032 113.955C267.423 112.574 269.362 113.694 269.362 116.455V162.74C269.362 165.501 267.423 168.859 265.032 170.24L164.022 228.562C161.631 229.943 159.692 228.824 159.692 226.062L159.691 179.776C159.691 177.016 161.629 173.658 164.021 172.277Z" fill="#E0E0E0"/>
<path d="M94.9628 282.504L171.605 238.255C173.996 236.874 175.935 237.855 175.936 240.445C175.936 243.035 173.998 246.254 171.606 247.635L94.9628 291.885C92.5718 293.266 90.6328 292.285 90.6328 289.695C90.6328 287.104 92.5708 283.885 94.9628 282.504Z" fill="#E0E0E0"/>
<path d="M94.9628 298.918L171.605 254.669C173.996 253.288 175.935 254.269 175.936 256.859C175.936 259.449 173.998 262.668 171.606 264.049L94.9628 308.299C92.5718 309.68 90.6328 308.699 90.6328 306.109C90.6328 303.518 92.5708 300.299 94.9628 298.918Z" fill="#E0E0E0"/>
<path d="M94.9628 315.332L171.605 271.083C173.996 269.702 175.935 270.683 175.936 273.273C175.936 275.863 173.998 279.082 171.606 280.463L94.9628 324.713C92.5718 326.094 90.6328 325.113 90.6328 322.523C90.6328 319.931 92.5708 316.712 94.9628 315.332Z" fill="#E0E0E0"/>
<path d="M131.252 259.674C131.252 258.017 132.415 256.002 133.85 255.174L266.761 178.438C268.196 177.61 270.522 177.609 271.957 178.438L274.885 180.129C276.32 180.957 277.483 182.972 277.483 184.629V286.508C277.483 288.158 276.314 290.183 274.885 291.008L141.974 367.744C140.545 368.569 138.207 368.569 136.778 367.744L133.85 366.054C132.421 365.229 131.252 363.204 131.252 361.554V259.674Z" fill="#20AD95"/>
<path opacity="0.4" d="M132.01 257.115L139.384 261.368L276.72 182.069C276.253 181.258 275.602 180.545 274.889 180.127L271.951 178.443C270.525 177.607 268.19 177.607 266.764 178.443L133.853 255.174C133.128 255.59 132.477 256.303 132.01 257.115Z" fill="white"/>
<path opacity="0.1" d="M131.248 259.673V361.55C131.248 363.209 132.416 365.225 133.854 366.048L136.779 367.744C137 367.867 137.234 367.978 137.492 368.064C137.824 368.175 138.18 368.261 138.561 368.31C139.237 368.396 139.95 368.372 140.614 368.236C140.786 368.199 140.958 368.15 141.118 368.101C141.229 368.064 141.327 368.027 141.425 367.978C140.946 368.15 140.528 368.125 140.184 367.953C139.692 367.695 139.385 367.105 139.385 366.245V264.368C139.385 263.299 139.926 262.487 140.737 262.156L139.385 261.37L132.011 257.117C131.543 257.928 131.248 258.849 131.248 259.673Z" fill="black"/>
<path opacity="0.2" d="M139.385 261.366L200.937 284.362C205.325 285.997 210.253 284.374 212.81 280.454L222.694 265.311L277.213 181.785L224.665 265.88L277.483 286.551C277.471 287.387 277.163 288.321 276.672 289.144L224.517 266.116L213.031 284.498C210.389 288.714 205.054 290.361 200.507 288.345L192.329 284.735L140.185 367.951C139.693 367.693 139.386 367.103 139.386 366.243V364.547L192.074 284.623L139.385 261.366Z" fill="black"/>
<path d="M249.053 144.406V378.309C249.053 381.07 250.992 382.19 253.383 380.809L358.461 320.143C360.852 318.762 362.791 315.404 362.791 312.643V78.7399C362.791 75.9789 360.852 74.8589 358.461 76.2399L253.383 136.906C250.992 138.287 249.053 141.645 249.053 144.406Z" fill="#FAFAFA" stroke="#E0E0E0" stroke-width="1.1698" stroke-miterlimit="10"/>
<path d="M255.143 148.767C255.143 148.119 255.647 147.303 256.269 146.944L268.239 140.036C268.861 139.677 269.365 139.911 269.365 140.559C269.365 141.206 268.861 142.022 268.239 142.381L256.27 149.29C255.647 149.648 255.143 149.414 255.143 148.767Z" fill="#455A64"/>
<path d="M255.143 153.423C255.143 152.775 255.647 151.959 256.269 151.6L268.239 144.692C268.861 144.333 269.365 144.567 269.365 145.215C269.365 145.863 268.861 146.678 268.239 147.037L256.27 153.946C255.647 154.304 255.143 154.07 255.143 153.423Z" fill="#455A64"/>
<path d="M255.143 158.079C255.143 157.431 255.647 156.615 256.269 156.256L268.239 149.348C268.861 148.989 269.365 149.223 269.365 149.871C269.365 150.519 268.861 151.334 268.239 151.693L256.27 158.602C255.647 158.96 255.143 158.726 255.143 158.079Z" fill="#455A64"/>
<path d="M354.667 98.1004V96.2324C354.667 96.1204 354.585 96.0674 354.483 96.1134L353.043 96.7624C352.941 96.8084 352.837 96.7574 352.803 96.6514C352.719 96.3864 352.611 96.1484 352.482 95.9374C352.424 95.8424 352.411 95.6884 352.46 95.5884L353.42 93.6534C353.47 93.5534 353.431 93.4274 353.335 93.3714L352.293 92.7704C352.197 92.7144 352.068 92.7444 352.006 92.8374L350.81 94.6364C350.748 94.7294 350.608 94.7944 350.497 94.7914C350.25 94.7854 349.989 94.8104 349.718 94.8704C349.609 94.8944 349.513 94.8294 349.502 94.7184L349.344 93.1474C349.333 93.0364 349.246 92.9914 349.149 93.0474L347.531 93.9814C347.435 94.0374 347.348 94.1724 347.338 94.2834L347.176 96.0834C347.166 96.1944 347.09 96.3444 347.008 96.4194C346.693 96.7094 346.392 97.0284 346.109 97.3704C346.038 97.4564 345.896 97.4974 345.791 97.4604L344.752 97.0974C344.647 97.0604 344.516 97.1094 344.461 97.2054L343.272 99.2654C343.216 99.3624 343.24 99.4994 343.324 99.5724L344.157 100.29C344.242 100.363 344.277 100.506 344.238 100.61C344.084 101.026 343.957 101.446 343.864 101.864C343.84 101.973 343.748 102.113 343.657 102.178L342.179 103.218C342.088 103.282 342.014 103.425 342.014 103.536V105.404C342.014 105.516 342.096 105.569 342.198 105.523L343.638 104.874C343.74 104.828 343.844 104.879 343.878 104.985C343.962 105.25 344.07 105.488 344.199 105.699C344.257 105.794 344.27 105.948 344.221 106.048L343.261 107.983C343.211 108.083 343.25 108.209 343.346 108.265L344.388 108.866C344.484 108.922 344.613 108.892 344.675 108.799L345.871 107C345.933 106.907 346.073 106.842 346.184 106.844C346.431 106.85 346.692 106.825 346.963 106.765C347.072 106.741 347.168 106.806 347.179 106.917L347.337 108.489C347.348 108.6 347.436 108.645 347.532 108.589L349.15 107.655C349.246 107.599 349.333 107.464 349.343 107.353L349.505 105.553C349.515 105.442 349.591 105.292 349.673 105.217C349.988 104.927 350.288 104.608 350.571 104.266C350.642 104.18 350.784 104.139 350.889 104.176L351.927 104.538C352.032 104.575 352.163 104.526 352.219 104.43L353.408 102.37C353.464 102.274 353.44 102.136 353.356 102.063L352.523 101.345C352.438 101.272 352.403 101.129 352.442 101.025C352.596 100.609 352.723 100.189 352.816 99.7714C352.84 99.6624 352.932 99.5224 353.023 99.4574L354.501 98.4174C354.593 98.3544 354.667 98.2124 354.667 98.1004ZM348.342 103.974C346.833 104.845 345.609 104.139 345.609 102.396C345.609 100.653 346.833 98.5344 348.342 97.6634C349.851 96.7924 351.075 97.4984 351.075 99.2414C351.074 100.983 349.851 103.102 348.342 103.974Z" fill="#37474F"/>
<path d="M305.922 144.2C318.2 137.111 328.153 142.858 328.153 157.035C328.153 171.212 318.2 188.451 305.922 195.54C293.644 202.629 283.691 196.882 283.691 182.705C283.692 168.527 293.645 151.288 305.922 144.2Z" fill="#455A64"/>
<path d="M305.767 155.356C309.75 153.056 312.979 154.92 312.979 159.519C312.979 164.119 309.75 169.712 305.767 172.011C301.784 174.31 298.555 172.447 298.555 167.847C298.555 163.248 301.784 157.655 305.767 155.356Z" fill="#20AD95"/>
<path d="M319.98 179.882C319.98 172.325 314.674 169.262 308.131 173.041L304.04 175.403C297.497 179.181 292.191 188.37 292.191 195.926V197.987C293.372 198.379 294.655 198.573 296.01 198.576C298.995 198.582 302.355 197.599 305.922 195.54C311.256 192.46 316.149 187.462 319.98 181.635V179.882Z" fill="#20AD95"/>
<path d="M285.856 216.635L325.987 193.465C327.183 192.775 328.152 193.265 328.152 194.56C328.152 195.855 327.183 197.465 325.987 198.155L285.856 221.325C284.66 222.015 283.691 221.525 283.691 220.23C283.691 218.935 284.66 217.326 285.856 216.635Z" fill="#20AD95"/>
<path d="M281.55 233.208L330.295 205.035C331.491 204.345 332.46 204.835 332.46 206.13C332.46 207.425 331.491 209.035 330.295 209.725L281.55 237.898C280.354 238.588 279.385 238.098 279.385 236.803C279.385 235.508 280.354 233.898 281.55 233.208Z" fill="#455A64"/>
<path d="M331.594 227.745L345.243 219.864C345.96 219.45 346.542 219.639 346.542 220.287C346.542 220.935 345.96 221.796 345.243 222.21L331.594 230.091C330.877 230.505 330.295 230.316 330.295 229.668C330.295 229.02 330.877 228.159 331.594 227.745Z" fill="#37474F"/>
<path d="M263.405 262.429L283.447 250.858C284.643 250.168 285.612 250.727 285.612 252.108V265.87C285.612 267.251 284.643 268.93 283.447 269.62L263.405 281.191C262.209 281.881 261.24 281.322 261.24 279.941V266.179C261.24 264.798 262.209 263.119 263.405 262.429Z" fill="#20AD95"/>
<path d="M266.602 264.35L280.251 256.469C280.968 256.055 281.55 256.244 281.55 256.892C281.55 257.54 280.968 258.401 280.251 258.815L266.602 266.696C265.885 267.11 265.303 266.921 265.303 266.273C265.303 265.625 265.884 264.764 266.602 264.35Z" fill="#FAFAFA"/>
<path d="M265.303 271.294V275.329C265.303 276.157 265.885 276.493 266.602 276.079L280.251 268.198C280.968 267.784 281.55 266.776 281.55 265.948V261.912C281.55 261.084 280.969 260.748 280.251 261.162L266.601 269.043C265.884 269.458 265.303 270.465 265.303 271.294Z" fill="#FAFAFA"/>
<path d="M295.901 243.667L315.943 232.096C317.139 231.406 318.108 231.965 318.108 233.346V247.108C318.108 248.489 317.139 250.168 315.943 250.858L295.901 262.429C294.705 263.119 293.736 262.56 293.736 261.179V247.417C293.736 246.037 294.705 244.358 295.901 243.667Z" fill="#20AD95"/>
<path d="M299.098 245.593L312.747 237.712C313.464 237.298 314.046 237.487 314.046 238.135C314.046 238.783 313.464 239.644 312.747 240.058L299.098 247.939C298.381 248.353 297.799 248.164 297.799 247.516C297.799 246.868 298.38 246.007 299.098 245.593Z" fill="#FAFAFA"/>
<path d="M297.799 252.532V256.567C297.799 257.395 298.381 257.731 299.098 257.317L312.747 249.436C313.464 249.022 314.046 248.014 314.046 247.186L314.047 243.15C314.047 242.322 313.465 241.986 312.748 242.4L299.098 250.281C298.38 250.696 297.799 251.703 297.799 252.532Z" fill="#FAFAFA"/>
<path d="M328.397 224.906L348.439 213.335C349.635 212.645 350.604 213.204 350.604 214.585V228.347C350.604 229.728 349.635 231.407 348.439 232.097L328.397 243.668C327.201 244.358 326.232 243.799 326.232 242.418V228.656C326.232 227.275 327.202 225.596 328.397 224.906Z" fill="#20AD95"/>
<path d="M331.594 226.827L345.243 218.946C345.96 218.532 346.542 218.721 346.542 219.369C346.542 220.017 345.961 220.878 345.243 221.292L331.594 229.173C330.877 229.587 330.295 229.398 330.295 228.75C330.295 228.102 330.877 227.242 331.594 226.827Z" fill="#FAFAFA"/>
<path d="M330.295 233.77V237.805C330.295 238.633 330.877 238.969 331.594 238.555L345.243 230.674C345.96 230.26 346.542 229.252 346.542 228.424V224.388C346.542 223.56 345.961 223.224 345.243 223.638L331.593 231.519C330.877 231.934 330.295 232.942 330.295 233.77Z" fill="#FAFAFA"/>
<path d="M265.57 294.014L346.274 247.419C348.666 246.038 350.604 247.019 350.604 249.609C350.604 252.199 348.665 255.419 346.274 256.799L265.57 303.394C263.179 304.775 261.24 303.794 261.24 301.204C261.24 298.613 263.179 295.394 265.57 294.014Z" fill="#E0E0E0"/>
<path d="M265.57 312.776L346.274 266.181C348.666 264.8 350.604 265.781 350.604 268.371C350.604 270.961 348.665 274.181 346.274 275.561L265.57 322.156C263.179 323.537 261.24 322.556 261.24 319.966C261.24 317.376 263.179 314.157 265.57 312.776Z" fill="#E0E0E0"/>
<path d="M291.839 321.061L320.005 304.799C321.201 304.109 322.17 304.668 322.17 306.049V315.12C322.17 316.501 321.201 318.18 320.005 318.87L291.839 335.133C290.643 335.823 289.674 335.264 289.674 333.883V324.811C289.673 323.43 290.643 321.751 291.839 321.061Z" fill="#20AD95"/>
<path d="M267.332 295.391C266.21 296.039 265.301 297.614 265.301 298.909C265.301 300.204 266.21 300.729 267.332 300.082C268.454 299.435 269.363 297.859 269.363 296.564C269.363 295.268 268.454 294.743 267.332 295.391Z" fill="#FAFAFA"/>
<path d="M273.765 291.672C272.643 292.32 271.734 293.895 271.734 295.19C271.734 296.485 272.643 297.011 273.765 296.363C274.887 295.715 275.796 294.14 275.796 292.845C275.796 291.55 274.887 291.025 273.765 291.672Z" fill="#FAFAFA"/>
<path d="M280.201 287.949C279.079 288.597 278.17 290.172 278.17 291.467C278.17 292.762 279.079 293.288 280.201 292.64C281.323 291.992 282.232 290.417 282.232 289.122C282.232 287.827 281.322 287.302 280.201 287.949Z" fill="#FAFAFA"/>
<path d="M286.635 284.231C285.513 284.879 284.604 286.454 284.604 287.749C284.604 289.044 285.513 289.569 286.635 288.922C287.757 288.274 288.665 286.699 288.665 285.404C288.665 284.109 287.757 283.583 286.635 284.231Z" fill="#FAFAFA"/>
<path d="M293.068 280.512C291.946 281.16 291.037 282.735 291.037 284.03C291.037 285.325 291.946 285.851 293.068 285.203C294.19 284.555 295.099 282.98 295.099 281.685C295.099 280.39 294.19 279.864 293.068 280.512Z" fill="#FAFAFA"/>
<path d="M299.504 276.789C298.382 277.437 297.473 279.012 297.473 280.307C297.473 281.602 298.382 282.128 299.504 281.48C300.626 280.832 301.535 279.257 301.535 277.962C301.535 276.667 300.625 276.141 299.504 276.789Z" fill="#FAFAFA"/>
<path d="M305.937 273.071C304.815 273.719 303.906 275.294 303.906 276.589C303.906 277.884 304.815 278.409 305.937 277.762C307.059 277.114 307.968 275.539 307.968 274.244C307.968 272.948 307.059 272.423 305.937 273.071Z" fill="#FAFAFA"/>
<path d="M267.332 314.172C266.21 314.82 265.301 316.395 265.301 317.69C265.301 318.985 266.21 319.511 267.332 318.863C268.454 318.215 269.363 316.64 269.363 315.345C269.363 314.05 268.454 313.524 267.332 314.172Z" fill="#FAFAFA"/>
<path d="M273.765 310.453C272.643 311.101 271.734 312.676 271.734 313.971C271.734 315.266 272.643 315.791 273.765 315.144C274.887 314.496 275.796 312.921 275.796 311.626C275.796 310.33 274.887 309.805 273.765 310.453Z" fill="#FAFAFA"/>
<path d="M280.201 306.735C279.079 307.383 278.17 308.958 278.17 310.253C278.17 311.548 279.079 312.074 280.201 311.426C281.323 310.778 282.232 309.203 282.232 307.908C282.232 306.612 281.322 306.087 280.201 306.735Z" fill="#FAFAFA"/>
<path d="M286.635 303.011C285.513 303.659 284.604 305.234 284.604 306.529C284.604 307.824 285.513 308.35 286.635 307.702C287.757 307.054 288.665 305.479 288.665 304.184C288.665 302.889 287.757 302.364 286.635 303.011Z" fill="#FAFAFA"/>
<path d="M293.068 299.293C291.946 299.941 291.037 301.516 291.037 302.811C291.037 304.106 291.946 304.631 293.068 303.984C294.19 303.336 295.099 301.761 295.099 300.466C295.099 299.171 294.19 298.646 293.068 299.293Z" fill="#FAFAFA"/>
<path d="M299.504 295.57C298.382 296.218 297.473 297.793 297.473 299.088C297.473 300.383 298.382 300.909 299.504 300.261C300.626 299.613 301.535 298.038 301.535 296.743C301.534 295.448 300.625 294.922 299.504 295.57Z" fill="#FAFAFA"/>
<path d="M305.937 291.852C304.815 292.5 303.906 294.075 303.906 295.37C303.906 296.665 304.815 297.191 305.937 296.543C307.059 295.896 307.968 294.32 307.968 293.025C307.968 291.729 307.059 291.204 305.937 291.852Z" fill="#FAFAFA"/>
<path d="M396.185 334.133C392.677 334.133 389.35 333.268 386.337 331.529C379.131 327.368 374.998 318.66 374.998 307.638C374.998 288.256 387.317 265.959 403.044 256.88C411.512 251.992 419.921 251.461 426.726 255.39C433.933 259.551 438.065 268.259 438.065 279.281C438.065 298.663 425.746 320.96 410.019 330.039C405.301 332.762 400.6 334.133 396.185 334.133ZM416.845 266.749C414.323 266.749 411.658 268.016 410.019 268.962C398.598 275.556 388.949 293.267 388.949 307.638C388.949 313.455 390.58 317.869 393.312 319.447C396.423 321.243 400.744 319.283 403.043 317.957C414.464 311.363 424.113 293.652 424.113 279.281C424.113 273.464 422.482 269.05 419.75 267.472C418.856 266.955 417.862 266.749 416.845 266.749Z" fill="#455A64"/>
<path d="M426.608 282.385C426.608 271.498 419.75 267.473 419.75 267.473C422.482 269.051 424.113 273.465 424.113 279.282C424.113 293.652 414.464 311.363 403.043 317.958C400.744 319.284 396.422 321.244 393.312 319.449C393.312 319.449 399.101 323.041 407.098 318.679C418.676 312.362 426.608 296.755 426.608 282.385Z" fill="#37474F"/>
<path d="M415.608 146.295C415.608 142.311 412.379 139.082 408.395 139.082C404.411 139.082 401.182 142.311 401.182 146.295C401.182 146.302 401.183 146.308 401.183 146.314H401.182V261.022C401.182 262.088 401.886 263.154 403.295 263.967C406.112 265.593 410.679 265.593 413.496 263.967C414.904 263.154 415.609 262.088 415.609 261.022V146.315H415.608C415.607 146.308 415.608 146.302 415.608 146.295Z" fill="#37474F"/>
<path d="M409.845 171.929C409.845 169.273 407.98 166.042 405.68 164.714C404.51 164.038 403.456 163.991 402.7 164.451L402.696 164.445L384.898 174.699L384.467 174.955C384.405 174.986 384.344 175.017 384.293 175.058C383.985 175.263 383.698 175.499 383.442 175.755C382.365 176.821 381.699 178.308 381.699 179.939C381.699 182.174 382.94 184.123 384.765 185.128C385.606 185.579 386.56 185.835 387.585 185.835C388.6 185.835 389.564 185.579 390.395 185.128C390.508 185.066 390.621 184.995 390.733 184.933L408.644 174.618L408.641 174.613C409.384 174.173 409.845 173.247 409.845 171.929Z" fill="#455A64"/>
<path d="M409.845 200.651C409.845 197.995 407.98 194.764 405.68 193.436C404.51 192.761 403.456 192.713 402.7 193.173L402.696 193.167L381.836 205.146L381.405 205.402C381.343 205.433 381.282 205.464 381.231 205.505C380.923 205.71 380.636 205.946 380.38 206.202C379.303 207.268 378.637 208.755 378.637 210.386C378.637 212.621 379.878 214.57 381.703 215.575C382.544 216.026 383.497 216.283 384.523 216.283C385.538 216.283 386.502 216.027 387.333 215.575C387.446 215.513 387.558 215.442 387.671 215.38L408.644 203.339L408.641 203.334C409.384 202.896 409.845 201.969 409.845 200.651Z" fill="#455A64"/>
</svg>
